<?xml version="1.0" encoding="utf-8"?><!DOCTYPE svg PUBLIC "-//W3C//DTD SVG 1.1//EN" "http://www.w3.org/Graphics/SVG/1.1/DTD/svg11.dtd"><svg version="1.1" id="Contours" xmlns="http://www.w3.org/2000/svg" xmlns:xlink="http://www.w3.org/1999/xlink" x="0px" y="0px" width="1445.997437px" height="1445.997437px" viewBox="0.000004 0.000012 1445.997437 656.905518" enable-background="new 0 0 1445.997437 1445.997437" xml:space="preserve" stroke="black" fill="none" stroke-linecap='round' stroke-linejoin='round'><path class="selected"  fill="#000000" opacity="1.000000" stroke="none" 
 	d="
M621.391689 0.182910 C636.102626 -0.662732 650.298000 1.567676 664.486415 3.919422 C669.029201 4.672412 673.796840 4.662219 678.107692 6.078540 C684.141689 8.060840 685.628749 13.953235 687.107082 19.349353 C692.358974 38.519458 697.502529 57.719348 702.621730 76.925464 C707.504177 95.242847 712.294033 113.584888 717.146389 131.910327 C719.451992 140.617725 722.001796 149.265491 724.092128 158.023547 C726.634121 168.673755 727.752285 179.790332 731.417690 190.012744 C735.686245 201.917041 729.976528 212.004199 727.720668 222.582324 C723.571376 242.038867 718.152431 261.228381 713.120327 280.491931 C708.016689 300.029529 702.602443 319.486743 697.610927 339.052173 C695.710659 346.500781 694.625820 354.156299 693.114589 361.706592 C692.958400 362.486987 692.427028 363.192554 692.069789 363.932910 C691.427089 363.311328 690.402797 362.794360 690.199306 362.052417 C687.446865 352.013965 684.867824 341.928027 682.126308 331.886524 C678.858242 319.916370 675.441921 307.986621 672.150112 296.022815 C668.114650 281.356311 664.317958 266.621631 660.088893 252.011646 C656.349269 239.092395 651.907619 226.374561 648.248256 213.434253 C645.492214 203.688220 643.553981 193.713428 641.121242 183.872669 C638.844936 174.665027 636.601589 165.440906 633.975917 156.330005 C630.206203 143.249194 626.026271 130.286792 622.222744 117.215198 C621.641506 115.217700 622.239345 112.899036 622.096767 110.741870 C622.033840 109.788989 621.483791 108.868213 621.154811 107.932910 C620.150478 108.554797 618.563930 108.961292 618.240688 109.835132 C616.687282 114.034595 615.339504 118.323596 614.165798 122.647876 C609.772121 138.836353 605.523647 155.064136 601.127834 171.252002 C596.858425 186.974231 592.451442 202.658984 588.148525 218.372058 C584.007351 233.494251 579.951442 248.639758 575.803859 263.760181 C571.617824 279.020740 567.341152 294.256458 563.148952 309.515430 C559.447780 322.986865 555.849453 336.486743 552.131313 349.953540 C547.508083 366.698901 542.748500 383.406787 538.159511 400.161426 C534.015956 415.289966 530.141811 430.492969 525.930751 445.602344 C521.479885 461.572070 516.586635 477.419605 512.215602 493.410449 C504.394252 522.023731 496.963527 550.744190 489.093715 579.343921 C483.338527 600.258960 477.047084 621.026050 471.189357 641.913745 C468.926601 649.982105 462.144985 652.951099 455.578762 653.636524 C440.285488 655.232837 424.826564 655.785693 409.439907 655.709033 C401.985866 655.671924 394.449367 653.643604 387.125637 651.814258 C381.196254 650.333057 377.683925 645.920093 376.118862 639.914234 C370.633083 618.862476 364.997341 597.850025 359.525173 576.794727 C354.985927 559.329028 350.584438 541.827319 346.145229 524.335742 C341.628322 506.537647 337.127956 488.735523 332.642665 470.929492 C328.460414 454.326099 324.366115 437.700366 320.118984 421.113696 C317.692897 411.638599 314.903225 402.255786 312.519252 392.770801 C308.948330 378.563526 305.688686 364.278003 302.117336 350.070972 C297.415859 331.368213 292.547817 312.707202 287.737697 294.031787 C283.548976 277.768726 279.316860 261.516834 275.147914 245.248767 C270.011562 225.205859 264.867824 205.164661 259.826137 185.097827 C255.196376 166.670459 250.759914 148.194568 246.107692 129.772998 C244.515163 123.467456 242.511379 117.266284 240.734584 111.006397 C240.434780 109.949939 240.441066 108.803577 240.114772 107.758472 C239.706508 106.450977 239.100734 105.205310 238.580226 103.932910 C237.434047 105.108203 235.608425 106.105701 235.247097 107.486377 C231.738369 120.892871 228.624843 134.402942 225.099269 147.804797 C221.627101 161.003650 217.741481 174.093128 214.159389 187.263782 C210.082851 202.252551 206.141658 217.278064 202.141658 232.287647 C198.141658 247.297229 194.141689 262.306812 190.141689 277.316394 C184.141689 299.830737 178.204311 322.361987 172.123684 344.854541 C166.332454 366.276782 160.291530 387.631519 154.544521 409.065357 C148.627742 431.132373 142.999019 453.276660 137.113308 475.352222 C134.277950 485.986743 131.039974 496.513233 128.165309 507.137744 C123.742275 523.484912 119.564327 539.898609 115.115840 556.238696 C110.920192 571.650073 106.440364 586.984058 102.213649 602.387134 C98.432186 616.167651 94.629116 629.947925 91.241756 643.827564 C89.950893 649.116870 86.375698 651.728687 81.928829 652.784839 C75.312221 654.356250 68.484859 655.495410 61.701107 655.803516 C50.999477 656.289478 40.243892 656.282398 29.541744 655.802173 C23.090877 655.512622 16.572536 654.420825 10.309749 652.812549 C2.012874 650.681934 -1.589909 643.192676 0.654537 634.892505 C6.209194 614.350757 11.542568 593.748828 17.178035 573.229663 C21.404750 557.839649 26.001155 542.551563 30.363582 527.198413 C35.661037 508.554248 40.818660 489.870288 46.164028 471.240039 C50.049617 457.697559 54.220211 444.237109 58.123897 430.699634 C64.522945 408.508960 70.834255 386.292774 77.133754 364.073657 C82.505397 345.127368 87.755733 326.146472 93.158504 307.209094 C97.408077 292.313648 101.879451 277.481555 106.124263 262.584827 C111.860958 242.452319 117.408779 222.265979 123.162441 202.138355 C127.844966 185.757984 132.771236 169.447315 137.473995 153.072620 C140.472133 142.633228 143.130855 132.095752 146.171932 121.669422 C150.722225 106.068775 155.607814 90.565418 160.106136 74.950183 C165.086818 57.660571 169.640590 40.247485 174.676784 22.974597 C177.485042 13.343005 183.750301 7.185657 194.135311 5.925464 C207.615200 4.289600 221.052150 1.727466 234.574184 1.165149 C249.707851 0.535632 264.823146 2.612842 279.657314 5.963916 C287.450832 7.724475 292.764492 12.929065 294.996547 20.236072 C298.853359 32.861926 301.824611 45.759021 305.137783 58.549976 C310.011806 77.366443 314.893764 96.181018 319.709865 115.012256 C325.222744 136.567920 330.671169 158.139942 336.140224 179.706775 C339.276760 192.075366 342.370021 204.454944 345.533840 216.816455 C350.045131 234.443286 354.566188 252.067798 359.154506 269.674671 C362.327419 281.849963 365.739894 293.963672 368.831447 306.159107 C373.041591 322.766956 376.985195 339.442310 381.162319 356.058643 C384.270046 368.420825 387.585842 380.730518 390.775600 393.072192 C395.912136 412.946704 401.038173 432.823901 406.136196 452.708423 C409.999904 467.778858 413.850368 482.852954 417.616176 497.947925 C418.340541 500.851856 418.466518 503.908984 419.247585 506.792651 C419.488185 507.681201 420.986415 508.229053 421.908718 508.932910 C422.319728 508.246265 423.094631 507.555835 423.087307 506.873706 C422.969204 495.937061 427.569179 486.071582 430.230434 475.795947 C435.599269 455.066333 441.431057 434.455982 447.155910 413.819629 C451.590847 397.833301 456.136989 381.877734 460.662807 365.916675 C467.809658 340.712573 475.053371 315.535632 482.119594 290.308948 C488.146816 268.791492 494.050075 247.238757 499.883144 225.667713 C506.046413 202.875659 511.952724 180.013843 518.179653 157.239429 C522.388820 141.844592 527.045559 126.572620 531.344753 111.201648 C536.695095 92.072437 541.761623 72.863391 547.185573 53.755420 C550.648952 41.554126 554.130764 29.328174 558.394313 17.395557 C560.801052 10.659473 566.945522 7.454028 573.837062 5.922778 C589.418544 2.460742 605.261135 1.293628 621.391689 0.182910 z"/><path class="selected"  fill="#000000" opacity="1.000000" stroke="none" 
 	d="
M904.391689 578.182910 C899.429042 597.478931 894.861660 616.562427 889.944545 635.555591 C887.353115 645.565357 877.749965 653.149585 867.038173 653.884570 C854.329555 654.756641 841.595424 655.249561 828.873989 655.940723 C823.619472 656.226123 818.321743 657.214526 813.127407 656.809375 C800.984096 655.862476 788.807216 654.752612 776.822231 652.678516 C772.413417 651.915576 769.438076 647.861377 766.925136 643.296680 C757.829799 626.774829 755.965541 608.134815 750.575405 590.569263 C744.829189 571.842822 741.060268 552.517871 736.084072 533.544360 C732.033535 518.100147 727.348964 502.823169 723.180629 487.408496 C719.688808 474.495532 716.022487 461.588672 713.524440 448.471362 C712.690639 444.093067 715.082973 439.035327 716.254970 434.351856 C721.164760 414.730884 726.126674 395.122730 731.159511 375.533008 C733.864589 365.003589 736.845180 354.544971 739.534267 344.011646 C743.154506 329.831348 746.629360 315.613818 750.133754 301.404163 C751.515346 295.802295 752.801113 290.176746 754.152919 284.567371 C754.288906 284.003162 754.582241 283.476795 754.802578 282.932910 C755.355922 283.206531 756.153286 283.336414 756.415248 283.781543 C757.113735 284.967822 757.780605 286.240466 758.109340 287.565784 C760.173305 295.887256 761.834804 304.321460 764.220546 312.546985 C767.101039 322.478137 770.955043 332.132251 773.704433 342.095020 C780.068935 365.156909 785.979335 388.343555 792.155361 411.457935 C796.923671 429.304126 801.879848 447.100391 806.633022 464.950488 C810.233730 478.473193 813.582729 492.062793 817.159511 505.591968 C820.770107 519.249439 824.528530 532.868091 828.206874 546.507861 C828.572841 547.864307 828.701992 549.296802 829.176357 550.608814 C829.715419 552.100147 830.519497 553.495776 831.208339 554.932910 C832.186122 553.589404 833.680019 552.377734 834.062343 550.882007 C838.189663 534.739673 842.142665 518.552905 846.141445 502.377857 C854.475551 468.666553 862.714443 434.931445 871.185268 401.254566 C874.858120 386.652881 879.179164 372.215015 882.898281 357.624439 C888.129482 337.100635 893.048793 316.497424 898.153286 295.941028 C900.439663 286.733753 902.860439 277.559863 905.205043 268.367053 C908.857387 254.046863 912.471401 239.716785 916.151088 225.403674 C918.434047 216.524768 920.855922 207.681506 923.130825 198.800708 C926.837490 184.331165 930.477871 169.844714 934.141079 155.364124 C938.872890 136.658923 943.622890 117.958240 948.321743 99.244739 C953.288295 79.465869 958.136806 59.657276 963.173305 39.896411 C965.317714 31.482288 967.588466 23.087024 970.202724 14.809741 C972.883510 6.321582 980.228847 2.919299 987.954067 2.146289 C1002.101650 0.730457 1016.381069 0.066821 1030.598720 0.157337 C1037.720546 0.202625 1044.842495 2.525379 1051.937465 3.951526 C1060.958461 5.764758 1064.763149 12.869617 1067.013881 20.504321 C1071.799282 36.737048 1075.812343 53.196033 1080.260341 69.530017 C1085.151577 87.491504 1090.171962 105.417896 1095.142788 123.357715 C1099.243373 138.156909 1103.354946 152.953052 1107.459438 167.751209 C1111.688320 182.998096 1115.939785 198.238941 1120.133998 213.495471 C1123.837001 226.965259 1127.473720 240.453357 1131.142055 253.932666 C1136.807460 274.750354 1142.506557 295.558887 1148.130580 316.387683 C1151.855922 330.184985 1155.388637 344.034717 1159.165615 357.817554 C1163.058071 372.022144 1167.177211 386.164234 1171.132289 400.351856 C1175.506923 416.043750 1179.798305 431.758838 1184.145595 447.458423 C1186.959926 457.622363 1189.810024 467.776172 1192.643276 477.934741 C1195.143398 486.898364 1197.692348 495.848804 1200.130336 504.829151 C1204.035854 519.215991 1207.876430 533.620654 1211.718105 548.024829 C1212.161464 549.687549 1212.264614 551.458667 1212.854335 553.058399 C1213.217983 554.045215 1214.204555 554.802661 1214.911586 555.663013 C1215.654995 554.637744 1216.787807 553.713184 1217.083339 552.571948 C1221.724941 534.650195 1226.270351 516.703418 1230.813686 498.756397 C1234.938198 482.463794 1238.950038 466.142139 1243.173061 449.875293 C1245.666835 440.269336 1248.578823 430.772388 1251.118740 421.177783 C1255.534755 404.496387 1259.798183 387.774463 1264.145961 371.074878 C1266.455898 362.202808 1268.867397 353.356983 1271.128994 344.472827 C1275.505458 327.280444 1279.599941 310.013416 1284.199672 292.881641 C1288.901699 275.369312 1294.229946 258.025623 1298.982631 240.526233 C1302.612636 227.160693 1305.717495 213.653308 1309.155117 200.234424 C1313.861904 181.861011 1318.682216 163.516834 1323.417080 145.150623 C1328.347866 126.024463 1333.112148 106.854480 1338.179287 87.764758 C1342.516933 71.423450 1347.195034 55.172717 1351.691738 38.873462 C1353.549892 32.137805 1355.876796 25.470691 1357.011684 18.610523 C1358.673183 8.567188 1364.553676 2.972583 1374.105068 2.086231 C1387.771694 0.817920 1401.538173 0.094531 1415.257534 0.154834 C1421.714443 0.183215 1428.545986 1.645435 1434.526577 4.110584 C1444.872158 8.374988 1447.730312 14.324756 1445.051235 24.930469 C1439.689296 46.158008 1434.012905 67.312000 1428.090908 88.390857 C1420.297206 116.132190 1412.124721 143.767017 1404.146938 171.456836 C1397.454677 194.685657 1390.779872 217.919483 1384.153530 241.167163 C1380.752529 253.099292 1377.585903 265.098804 1374.117763 277.010974 C1367.582485 299.458118 1360.749843 321.819507 1354.327358 344.298389 C1346.445400 371.885547 1339.037563 399.608447 1331.090175 427.176318 C1323.372646 453.946948 1315.167446 480.576587 1307.298183 507.303882 C1301.478359 527.070728 1295.816249 546.884570 1290.151577 566.696704 C1283.802455 588.903369 1277.705654 611.183887 1271.154750 633.330493 C1267.488857 645.723438 1258.076992 653.222217 1245.764370 653.877368 C1229.053920 654.766528 1212.309169 655.978931 1195.605556 655.662525 C1185.768764 655.476245 1175.816249 653.242603 1166.221035 650.753223 C1156.496791 648.230396 1151.703579 640.304126 1149.159633 631.055225 C1143.767177 611.449390 1138.530605 591.800586 1133.124111 572.198657 C1128.795497 556.505298 1124.276577 540.864551 1119.903896 525.183276 C1115.278408 508.595386 1110.774501 491.973560 1106.127285 475.391651 C1101.861293 460.169238 1097.386928 445.004932 1093.165004 429.770557 C1088.397182 412.566821 1083.854335 395.300708 1079.130214 378.084644 C1073.177944 356.392383 1067.150600 334.720630 1061.138149 313.044971 C1057.490200 299.893298 1053.792324 286.755359 1050.145717 273.603320 C1045.130092 255.513904 1040.178920 237.406604 1035.131191 219.326160 C1030.086757 201.257312 1024.896205 183.228992 1019.909877 165.144275 C1018.703701 160.769641 1018.135463 156.222400 1017.078823 151.801074 C1016.827358 150.748828 1015.791591 149.883960 1015.116542 148.932910 C1014.458217 149.734119 1013.427822 150.440479 1013.196010 151.350269 C1007.127407 175.178333 1001.186733 199.039111 995.123134 222.868518 C991.942836 235.366504 988.452724 247.786182 985.316860 260.294910 C981.148891 276.919666 977.342128 293.635669 973.103847 310.241931 C967.647304 331.621387 961.848354 352.913135 956.326625 374.276416 C952.159267 390.399585 948.212978 406.579761 944.137294 422.726734 C938.311122 445.808399 932.480190 468.888965 926.607509 491.958789 C920.813808 514.718555 914.963588 537.463672 909.143032 560.216602 C907.633144 566.119556 906.141689 572.027393 904.391689 578.182910 z"/></svg>